<svg id="visual" viewBox="0 0 1200 630" width="1200" height="630" xmlns="http://www.w3.org/2000/svg" xmlns:xlink="http://www.w3.org/1999/xlink" version="1.1"><path d="M0 70L109 102L218 102L327 70L436 83L545 77L655 77L764 70L873 83L982 64L1091 51L1200 108L1200 0L1091 0L982 0L873 0L764 0L655 0L545 0L436 0L327 0L218 0L109 0L0 0Z" fill="#00cc8e"></path><path d="M0 196L109 171L218 177L327 159L436 159L545 146L655 127L764 159L873 184L982 184L1091 190L1200 171L1200 106L1091 49L982 62L873 81L764 68L655 75L545 75L436 81L327 68L218 100L109 100L0 68Z" fill="#00b98a"></path><path d="M0 436L109 373L218 442L327 322L436 360L545 429L655 360L764 341L873 442L982 480L1091 366L1200 448L1200 169L1091 188L982 182L873 182L764 157L655 125L545 144L436 157L327 157L218 175L109 169L0 194Z" fill="#00a784"></path><path d="M0 574L109 524L218 555L327 549L436 562L545 568L655 448L764 474L873 543L982 574L1091 524L1200 555L1200 446L1091 364L982 478L873 440L764 339L655 358L545 427L436 358L327 320L218 440L109 371L0 434Z" fill="#00957c"></path><path d="M0 631L109 631L218 631L327 631L436 631L545 631L655 631L764 631L873 631L982 631L1091 631L1200 631L1200 553L1091 522L982 572L873 541L764 472L655 446L545 566L436 560L327 547L218 553L109 522L0 572Z" fill="#038373"></path></svg>
